<?xml version="1.0" encoding="utf-8"?>
<!-- Generator: Adobe Illustrator 26.2.1, SVG Export Plug-In . SVG Version: 6.00 Build 0)  -->
<svg version="1.1" id="Ebene_1" xmlns="http://www.w3.org/2000/svg" xmlns:xlink="http://www.w3.org/1999/xlink" x="0px" y="0px"
	 viewBox="0 0 179.8 92.1" style="enable-background:new 0 0 179.8 92.1;" xml:space="preserve">
<style type="text/css">
	.st0{fill:none;}
	.st1{fill:#014694;}
	.st2{fill:#FFFFFF;}
	.st3{fill:#96999B;}
</style>
<rect class="st0" width="179.8" height="92.1"/>
<g>
	<path class="st1" d="M52,32.3l-6.3,4.2l1.4-4.2l-13.6,0c0,0,0,0,0,0h-1.9c-2.9,0.1-8.3,1-9.8,5.6l-3,9c0,0-2.8,8.3,8.1,8.3l20.4,0
		l7.2-4.5L53,55.2l101.2,0l7.3-22.9L52,32.3z"/>
	<polyline class="st2" points="150.1,50.8 136.9,50.8 141.4,36.6 154.6,36.6 153.7,39.6 145.3,39.6 144.5,41.9 153,41.9 152,45 
		143.6,45 142.7,47.8 151.1,47.8 	"/>
	<polyline class="st2" points="134.5,50.8 122.5,50.8 127.1,36.6 132.3,36.6 128.7,47.7 135.5,47.7 	"/>
	<polyline class="st2" points="104.1,36.6 99.5,50.8 94.4,50.8 98.9,36.6 	"/>
	<polyline class="st2" points="90.1,36.6 86.6,47.7 93.4,47.7 92.4,50.8 80.5,50.8 85,36.6 	"/>
	<path class="st2" d="M56.1,45.1l-6.1,0l7.7-5.2 M32,36.6c-3,0-4.2,0.7-5,2.7L24.2,48c-0.5,1.5,1,2.8,3.3,2.8l14.2,0l3.6-2.4l10,0
		l-0.8,2.4l5.1,0l4.6-14.1H57L40.7,47.6l-11.1,0l2.6-8.1l9.1,0l4.4-2.9L32,36.6z"/>
	<path class="st2" d="M112.5,39.7l10.9,0l1.1-3.1l-11.6,0l-0.7,0c-0.3,0-0.6,0-1,0.1c-2.1,0.4-4.6,2.2-5.3,4.3
		c-0.7,2.3,0.3,4.2,2,4.3l8.2,0c1.3,0,1.4,0.7,1.1,1.3s-0.9,1-2.5,1H109h-6.3l-1,3.1h14.1c2.2,0,5.2-1.9,5.9-4.3
		c0.7-2.4-0.4-4.5-2.3-4.5l-8.3,0c-0.9,0-1.1-0.7-0.8-1.3C110.7,40.1,111.2,39.8,112.5,39.7"/>
	<path class="st2" d="M80.3,41c0.7-2.4-0.3-4.4-2.2-4.4H66.4l-4.6,14.1h5.4l2.2-7.5l1.2-3.6h3.1c1.9,0,2.5,1,1.9,2.1
		c-0.6,1.2-1.7,1.4-3.1,1.5h-3.1l4.2,7.5l5.4,0l-3-5.3L76,45.2C77.8,44.5,79.8,42.9,80.3,41"/>
	<path class="st2" d="M150.2,52.3c0-0.7,0.5-1.2,1.2-1.2c0.7,0,1.2,0.5,1.2,1.2c0,0.7-0.5,1.2-1.2,1.2
		C150.7,53.5,150.2,53,150.2,52.3 M152.4,52.3c0-0.5-0.4-1-1-1c-0.5,0-1,0.4-1,1c0,0.5,0.4,1,1,1C151.9,53.3,152.4,52.8,152.4,52.3z
		 M152,52.9h-0.3l-0.3-0.5h-0.3v0.5h-0.3v-1.3h0.6c0.1,0,0.3,0,0.4,0.1c0.1,0.1,0.2,0.2,0.2,0.3c0,0.2-0.1,0.3-0.4,0.4L152,52.9z
		 M151.5,52.2c0.1,0,0.2,0,0.2-0.2c0-0.2-0.2-0.2-0.3-0.2h-0.3v0.4H151.5z"/>
	<g>
		<path class="st3" d="M86.4,65.1h-2.8c-0.8,0-1.3-0.2-1.5-0.5c-0.3-0.3-0.3-0.8,0-1.6l0.4-1.3c0.5-1.4,1.2-2,2.7-2h2.8
			c0.7,0,1.2,0.2,1.4,0.5c0.2,0.3,0.2,0.6,0.1,1l-0.2,0.6h-1.1l0.2-0.5c0-0.2,0.1-0.4,0-0.5c-0.1-0.1-0.5-0.1-0.8-0.1h-2.6
			c-0.8,0-1.2,0.3-1.4,0.9l-0.6,1.8c-0.1,0.3-0.1,0.5,0,0.6c0.1,0.1,0.4,0.2,0.8,0.2h2.6c1,0,1.2-0.2,1.4-0.7L88,63h1.1l-0.2,0.6
			C88.6,64.5,88.1,65.1,86.4,65.1z"/>
		<path class="st3" d="M98.9,65.1h-1.2l1.2-3.8l-4.2,3.8H94l-1.8-3.9L91,65.1h-1.2l1.7-5.3h1.4l1.8,4l4.4-4h1.5L98.9,65.1z"/>
		<path class="st3" d="M110.6,65.1h-5.9l1.7-5.3h5.8l-0.3,1h-4.6l-0.4,1.1h4.5l-0.3,1h-4.5l-0.4,1.3h4.7L110.6,65.1z"/>
		<path class="st3" d="M116.7,65.1h-2.5c-1,0-1.4-0.1-1.7-0.5c-0.2-0.3-0.2-0.6,0-1.1l1.2-3.8h1.2l-1.3,3.9c-0.1,0.2-0.1,0.3,0,0.3
			c0,0,0.2,0.2,0.8,0.2h2.6c1,0,1.1-0.3,1.2-0.6l1.2-3.8h1.2l-1.3,3.9C118.9,64.9,118,65.1,116.7,65.1z"/>
		<path class="st3" d="M127,65.1h-1.1l0.4-1.3c0.1-0.2,0.1-0.4,0-0.5c-0.1-0.1-0.5-0.1-0.6-0.1h-3.5l-0.6,1.9h-1.2l1.7-5.3h4.5
			c0.9,0,1.3,0.1,1.6,0.5c0.2,0.3,0.1,0.8,0,1.2l-0.1,0.4c-0.2,0.5-0.5,0.8-0.8,0.9c0.1,0,0.1,0.1,0.1,0.2c0.1,0.2,0.1,0.4,0,0.8
			L127,65.1z M122.5,62.2h3.3c0.8,0,1.1-0.2,1.2-0.6l0.1-0.4c0-0.2,0.1-0.3,0-0.3c0-0.1-0.3-0.1-0.9-0.1H123L122.5,62.2z"/>
		<path class="st3" d="M133.8,65.1h-3.2c-0.8,0-1.3-0.2-1.5-0.5c-0.3-0.3-0.3-0.8,0-1.6l0.4-1.3c0.5-1.4,1.2-2,2.7-2h3.2
			c0.8,0,1.3,0.2,1.5,0.5c0.3,0.3,0.3,0.9,0,1.6l-0.4,1.3C136.1,64.5,135.3,65.1,133.8,65.1z M132.1,60.7c-0.8,0-1.2,0.3-1.4,0.9
			l-0.6,1.8c-0.1,0.3-0.1,0.5,0,0.6c0.1,0.1,0.4,0.2,0.8,0.2h3c0.8,0,1.2-0.3,1.4-0.9l0.6-1.8c0.1-0.3,0.1-0.5,0-0.6
			c-0.1-0.1-0.4-0.2-0.8-0.2H132.1z"/>
		<path class="st3" d="M138.6,65.1h-1.2l1.7-5.3h4.7c0.5,0,1.1,0,1.3,0.4c0.2,0.3,0.2,0.7,0,1.2c-0.4,1.1-0.7,1.8-2.4,1.8h-3.5
			L138.6,65.1z M139.5,62.2h3.4c0.5,0,0.8-0.2,1-0.6l0.2-0.5c0.1-0.2,0.1-0.3,0-0.3c0-0.1-0.2-0.1-0.6-0.1H140L139.5,62.2z"/>
		<path class="st3" d="M151,65.1h-5.9l1.7-5.3h5.8l-0.3,1h-4.6l-0.4,1.1h4.5l-0.3,1H147l-0.4,1.3h4.7L151,65.1z"/>
	</g>
</g>
<rect x="18.6" y="55.2" class="st0" width="161.3" height="36.8"/>
<rect x="161.4" class="st0" width="18.4" height="92.1"/>
<rect x="0" class="st0" width="18.4" height="92.1"/>
</svg>
